<svg id="Layer_1" enable-background="new 0 0 512 512" height="512" viewBox="0 0 512 512" width="512" xmlns="http://www.w3.org/2000/svg"><g><path d="m455 407.715v96.785h-300v-96.784c0-37.487 30.389-67.876 67.876-67.876h31.385c11.454 0 20.74-9.285 20.74-20.74v-41.4h60v41.4c0 11.454 9.285 20.74 20.74 20.74h31.385c37.485 0 67.874 30.389 67.874 67.875z" fill="#d78878"/><g fill="#ca6e59"><path d="m325.74 339.84h30c-11.454 0-20.74-9.286-20.74-20.74v-41.4h-30v41.4c0 11.454 9.285 20.74 20.74 20.74z"/><path d="m387.125 339.84h-30c37.487 0 67.875 30.389 67.875 67.875v96.785h30v-96.785c0-37.486-30.389-67.875-67.875-67.875z"/></g><g fill="#ca6e59"><path d="m219.464 182.575c0 19.865-12.18 35.968-27.205 35.968s-23.753-18.493-23.753-38.358 8.728-33.578 23.753-33.578 27.205 16.104 27.205 35.968z"/><path d="m390.536 182.575c0 19.865 12.18 35.968 27.205 35.968s23.753-18.493 23.753-38.358-8.728-33.578-23.753-33.578-27.205 16.104-27.205 35.968z"/></g><path d="m205.396 194.322v-73.978c0-51.88 42.057-93.938 93.938-93.938h11.332c51.88 0 93.938 42.057 93.938 93.938v73.978c0 54.974-44.565 99.539-99.539 99.539h-.13c-54.974 0-99.539-44.565-99.539-99.539z" fill="#d78878"/><path d="m310.666 26.406h-11.332c-2.753 0-5.475.125-8.168.357 48.055 4.14 85.77 44.452 85.77 93.58v73.978c0 50.301-37.314 91.88-85.77 98.586 4.501.623 9.096.952 13.769.952h.13c54.974 0 99.539-44.565 99.539-99.539v-73.978c0-51.878-42.057-93.936-93.938-93.936z" fill="#ca6e59"/><path d="m408.641 97.538h-207.282c-4.064 0-7.359-3.295-7.359-7.359v-15.282c0-4.064 3.295-7.359 7.359-7.359h207.282c4.064 0 7.359 3.295 7.359 7.359v15.282c0 4.065-3.295 7.359-7.359 7.359z" fill="#5f99d7"/><g fill="#e94444"><path d="m230.333 67.538h39.179v30h-39.179z"/><path d="m340.487 67.538h39.179v30h-39.179z"/></g><path d="m82 108.441h30v396.059h-30z" fill="#e19974"/><path d="m82 166.532h30v58.616h-30z" fill="#5f99d7"/><path d="m82 281.198h30v58.616h-30z" fill="#5f99d7"/><ellipse cx="97" cy="49.5" fill="#e19974" rx="40" ry="42"/><path d="m97 7.5c-5.306 0-10.367 1.095-15 3.065 14.657 6.232 25 21.311 25 38.935s-10.343 32.704-25 38.935c4.633 1.97 9.694 3.065 15 3.065 22.091 0 40-18.804 40-42s-17.909-42-40-42z" fill="#dc8758"/><path d="m71.03 81.444h51.938l-10.968 39.902h-30z" fill="#918291"/><path d="m305 308.77s-100.6 7.54-97.68-94.92c0 0 11.53-3.55 20.76 9.76s22.15 28.889 76.92 28.889 67.69-15.579 76.92-28.889 20.76-9.76 20.76-9.76c2.92 102.46-97.68 94.92-97.68 94.92z" fill="#855151"/><g><path d="m402.68 213.85s-11.53-3.55-20.76 9.76c-2.768 3.992-5.87 8.187-10.331 12.105-8.064 58.461-56.525 70.442-81.589 72.692 9.007.808 15 .363 15 .363s100.6 7.54 97.68-94.92z" fill="#704444"/></g><path d="m423.17 330.092c1.853.142 3.252 1.733 3.152 3.589-1.142 21.24-12.363 136.663-121.322 136.663s-120.18-115.423-121.322-136.662c-.1-1.856 1.299-3.447 3.152-3.589l71.053-5.461c1.704-.131 3.25 1.013 3.603 2.685 1.991 9.441 10.778 38.518 43.514 38.518s41.523-29.077 43.514-38.518c.353-1.672 1.899-2.816 3.603-2.685z" fill="#e94444"/><path d="m423.17 330.092-15.808-1.215c-10.984 40.152-37.647 89.74-102.362 89.74s-91.378-49.588-102.362-89.74l-15.808 1.215c-1.853.142-3.252 1.733-3.152 3.589 1.142 21.24 12.363 136.663 121.322 136.663s120.18-115.423 121.322-136.663c.1-1.855-1.299-3.446-3.152-3.589z" fill="#ffd15b"/><g><path d="m423.17 330.092-15.808-1.215c-3.525 12.885-8.668 26.74-16.162 39.618-9.068 38.708-33.796 93.923-101.2 101.072 4.783.507 9.777.777 15 .777 108.959 0 120.18-115.423 121.322-136.663.1-1.855-1.299-3.446-3.152-3.589z" fill="#ffc344"/></g><path d="m183.462 504.5h-71.462v-49.904l42.246 13.99c17.842 5.909 29.216 18.465 29.216 32.255z" fill="#ca6e59"/><path d="m151 397.108c0 8.344-6.756 15.108-15.091 15.108-.906 0-1.64.735-1.64 1.642v38.444c0 13.089-10.598 23.699-23.672 23.699h-23.611c-14.352-.001-25.986-11.649-25.986-26.017v-41.969c0-14.368 11.634-26.015 25.986-26.015h48.924c8.334 0 15.09 6.764 15.09 15.108z" fill="#d78878"/><path d="m135.909 382h-30c8.334 0 15.091 6.764 15.091 15.108 0 8.344-6.756 15.108-15.091 15.108-.906 0-1.64.735-1.64 1.642v38.444c0 12.028-8.953 21.956-20.549 23.487 1.071.135 2.159.212 3.266.212h23.612c13.074 0 23.672-10.61 23.672-23.699v-38.444c0-.906.734-1.642 1.64-1.642 8.334 0 15.091-6.764 15.091-15.108-.001-8.344-6.757-15.108-15.092-15.108z" fill="#ca6e59"/><g><path d="m455 435.285c4.143 0 7.5-3.357 7.5-7.5v-20.065c0-23.787-11.11-45.934-29.948-60.151.764-6.006 1.109-10.7 1.259-13.485.32-5.973-4.101-11.012-10.066-11.47 0 0 0 0-.001 0l-71.054-5.46c-4-.312-7.731 1.616-9.876 4.777-.203-.921-.314-1.869-.314-2.832v-7.051c13.484-3.648 28.387-10.265 40.868-22.181 16.497-15.75 25.456-37.541 26.715-64.879 2.49.693 5.054 1.051 7.657 1.051 18.107 0 31.25-19.282 31.25-45.85 0-24.955-12.267-41.08-31.25-41.08-1.9 0-3.784.215-5.641.592v-19.361c0-5.197-.396-10.381-1.181-15.495 7.113-1.102 12.581-7.248 12.581-14.665v-15.283c0-8.193-6.666-14.859-14.859-14.859h-16.426c-7.282-9.844-16.166-18.216-26.483-24.896-3.478-2.252-8.121-1.257-10.372 2.22-2.251 3.478-1.257 8.121 2.22 10.372 5.487 3.552 10.483 7.679 14.988 12.305h-135.148c16.14-16.564 38.381-26.129 61.911-26.129h11.34c5.785 0 11.564.574 17.179 1.706 4.065.816 8.017-1.811 8.835-5.87.818-4.061-1.81-8.016-5.87-8.835-6.588-1.327-13.365-2.001-20.144-2.001h-11.34c-32.252 0-62.439 15.305-81.558 41.128h-16.413c-8.193 0-14.859 6.666-14.859 14.859v15.283c0 7.417 5.468 13.563 12.581 14.665-.785 5.114-1.181 10.298-1.181 15.495v19.362c-1.857-.377-3.74-.592-5.641-.592-18.983 0-31.25 16.125-31.25 41.08 0 26.567 13.143 45.85 31.25 45.85 2.603 0 5.167-.357 7.657-1.051 1.259 27.338 10.218 49.129 26.715 64.879 12.482 11.916 27.384 18.525 40.868 22.173v7.058c0 .965-.112 1.915-.316 2.838-2.151-3.161-5.895-5.089-9.875-4.783l-71.055 5.46c-5.966.458-10.387 5.497-10.066 11.471.15 2.784.495 7.479 1.259 13.484-11.625 8.773-20.299 20.57-25.243 33.905-4.114-4.293-9.896-6.974-16.295-6.974h-16.408v-252.14l10.162-36.971c9.128-9.026 14.838-21.772 14.838-35.889 0-27.294-21.309-49.5-47.5-49.5-6.875 0-13.511 1.499-19.724 4.456-3.74 1.78-5.329 6.256-3.55 9.995 1.781 3.74 6.257 5.33 9.995 3.55 4.184-1.991 8.652-3.001 13.279-3.001 17.921 0 32.5 15.477 32.5 34.5s-14.579 34.5-32.5 34.5-32.5-15.477-32.5-34.5c0-3.356.452-6.671 1.344-9.852 1.118-3.988-1.209-8.128-5.197-9.246-3.989-1.119-8.128 1.209-9.246 5.197-1.261 4.498-1.9 9.175-1.9 13.9 0 14.117 5.71 26.863 14.838 35.889l10.161 36.972v254.566c-12.296 4.965-21 17.026-21 31.09v41.969c0 14.064 8.704 26.124 21 31.089v23.426c0 4.143 3.357 7.5 7.5 7.5h373c4.143 0 7.5-3.357 7.5-7.5v-41.63c0-4.143-3.357-7.5-7.5-7.5s-7.5 3.357-7.5 7.5v34.13h-51.857c12.874-16.679 18.616-37.779 18.92-38.918 1.063-4-1.315-8.103-5.314-9.17-4.001-1.07-8.108 1.31-9.18 5.308-.082.303-8.231 30.07-25.377 42.78h-139.383c-17.13-12.698-25.28-42.417-25.377-42.779-1.066-3.998-5.17-6.378-9.174-5.314-4.003 1.064-6.385 5.173-5.32 9.176.303 1.139 6.046 22.239 18.92 38.918h-23.637c-1.662-13.834-12.213-26.238-28.221-33.268v-56.013c0-16.298 6.517-31.631 17.845-42.855 3.019 14.506 8.161 31.937 16.924 48.603 22.144 42.116 59.396 64.377 107.73 64.377s85.587-22.261 107.73-64.377c8.763-16.666 13.906-34.097 16.924-48.603 11.328 11.224 17.845 26.557 17.845 42.855v20.065c.002 4.143 3.359 7.5 7.502 7.5zm-313.516 21.178c.182-1.363.286-2.75.286-4.163v-33.356c2.041-.549 3.959-1.393 5.73-2.458v41.968zm-51.984-81.963v-27.186h15v27.186zm0-200.468h15v43.616h-15zm15 58.616v41.05h-15v-41.05zm-15 56.05h15v43.616h-15zm15-129.666h-15v-30.182h15zm-7.5-60.032c4.859 0 9.548-.768 13.966-2.187l-4.683 17.036h-18.566l-4.683-17.036c4.418 1.419 9.107 2.187 13.966 2.187zm-28.5 350.984v-41.969c0-10.21 8.293-18.516 18.485-18.516h48.924c4.186 0 7.591 3.413 7.591 7.607 0 4.195-3.405 7.608-7.591 7.608-5.04 0-9.14 4.101-9.14 9.142v38.443c0 8.933-7.255 16.199-16.172 16.199h-23.611c-10.193.002-18.486-8.304-18.486-18.514zm21 33.516h15v13.5h-15zm86.033 13.5h-56.033v-14.803c6.701-2.003 12.46-6.205 16.443-11.767l15.952 5.281c12.808 4.236 21.646 12.333 23.638 21.289zm38.139-290.927c-.495-3.883-.772-7.812-.772-11.753v-73.98c0-5.144.46-10.268 1.359-15.302h181.48c.899 5.034 1.359 10.158 1.359 15.302v73.98c0 3.941-.276 7.87-.772 11.753-.638.071-1.3.168-1.983.3-5.053.972-12.379 4.01-18.588 12.963-7.511 10.83-17.796 25.662-70.757 25.662s-63.246-14.832-70.757-25.663c-6.209-8.952-13.535-11.99-18.588-12.962-.682-.132-1.343-.229-1.981-.3zm63.341-116.035v-15h55.975v15zm140.727 64.072c7.855 0 16.25 6.852 16.25 26.08 0 15.164-6.078 30.85-16.25 30.85-2.586 0-4.835-.765-6.688-1.761.691-4.935 1.047-9.943 1.047-14.958v-38.983c1.822-.814 3.708-1.228 5.641-1.228zm-9.24-64.072h-21.333v-15h1.161c.016 0 .033.003.049.003.013 0 .027-.003.04-.003h20.083zm-36.333-15v15h-24.18v-15zm-110.154 0v15h-24.18v-15zm-60.513 0h20.083c.013 0 .027.003.04.003.016 0 .033-.003.049-.003h1.161v15h-21.333zm-25.49 105.152c0-19.229 8.395-26.08 16.25-26.08 1.933 0 3.82.414 5.641 1.227v38.983c0 5.015.355 10.024 1.047 14.958-1.853.996-4.101 1.761-6.687 1.761-10.173.001-16.251-15.685-16.251-30.849zm38.795 41.506c2.145.879 4.67 2.666 7.112 6.187 11.269 16.25 26.966 32.115 83.083 32.115s71.814-15.865 83.083-32.114c2.442-3.521 4.968-5.309 7.112-6.188-.645 24.563-8.065 43.799-22.108 57.249-26.016 24.919-66.851 22.389-67.532 22.345-.361-.026-.738-.026-1.104 0-.414.027-41.435 2.658-67.538-22.345-14.043-13.45-21.464-32.685-22.108-57.249zm90.195 94.589c.831.048 2.466.12 4.744.12 4.126 0 10.364-.239 17.756-1.288v3.982c0 7.79 3.25 15.145 8.759 20.416-4.967 9.351-14.202 18.818-31.259 18.818s-26.292-9.467-31.259-18.818c5.51-5.271 8.759-12.626 8.759-20.416v-3.986c11.472 1.629 20.164 1.306 22.5 1.172zm-39.218 38.42c9.43 12.188 22.991 18.629 39.218 18.629s29.788-6.441 39.218-18.629c6.05-7.818 9.203-16.42 10.791-22.329l42.499 3.266c-6.458 19.85-15.498 36.091-26.941 48.346-16.808 18.001-38.867 27.129-65.566 27.129-26.58 0-48.563-9.046-65.34-26.887-11.546-12.279-20.661-28.606-27.164-48.589l42.495-3.266c1.587 5.91 4.74 14.512 10.79 22.33zm133.672 51.782c-19.662 37.396-51.441 56.357-94.454 56.357s-74.792-18.961-94.454-56.357c-14.199-27.005-18.067-56.384-19.107-69.228l5.695-.438c7.235 23.674 17.852 43.064 31.599 57.685 19.725 20.975 45.385 31.61 76.268 31.61 31.023 0 56.772-10.73 76.53-31.893 13.624-14.591 24.148-33.886 31.334-57.403l5.697.438c-1.041 12.846-4.909 42.224-19.108 69.229z"/><path d="m297.105 221.103c2.988.78 5.441 1.17 7.895 1.17s4.906-.39 7.895-1.17c4.008-1.047 6.408-5.144 5.362-9.151-1.047-4.008-5.145-6.41-9.151-5.362-3.492.912-4.719.912-8.211 0-4.006-1.049-8.104 1.354-9.151 5.362-1.047 4.007 1.354 8.104 5.361 9.151z"/><path d="m256.788 142.194c8.953-2.338 13.07-2.338 22.023 0 .635.166 1.272.245 1.899.245 3.33 0 6.371-2.234 7.252-5.607 1.046-4.008-1.354-8.104-5.362-9.151-11.342-2.961-18.26-2.961-29.602 0-4.008 1.047-6.408 5.144-5.362 9.151 1.048 4.008 5.147 6.41 9.152 5.362z"/><path d="m331.188 142.194c8.953-2.338 13.07-2.338 22.023 0 .635.166 1.272.245 1.899.245 3.33 0 6.371-2.234 7.252-5.607 1.046-4.008-1.354-8.104-5.362-9.151-11.342-2.961-18.26-2.961-29.602 0-4.008 1.047-6.408 5.144-5.362 9.151 1.048 4.008 5.148 6.41 9.152 5.362z"/><path d="m263 162.367c-4.143 0-7.5 3.357-7.5 7.5v6c0 4.143 3.357 7.5 7.5 7.5s7.5-3.357 7.5-7.5v-6c0-4.142-3.357-7.5-7.5-7.5z"/><path d="m347 162.367c-4.143 0-7.5 3.357-7.5 7.5v6c0 4.143 3.357 7.5 7.5 7.5s7.5-3.357 7.5-7.5v-6c0-4.142-3.357-7.5-7.5-7.5z"/></g></g></svg>